# xmcd
#
# Track frame offsets:
#	150
#	18176
#	33976
#	54279
#	72244
#	90146
#	108156
#	123836
#	140048
#	157873
#	173670
#	191345
#	207455
#	230461
#	245529
#	264173
#	281228
#	297477
#
# Disc length: 4200 seconds
#
# Revision: 0
# Processed by: cddbd v1.5.2PL0 Copyright (c) Steve Scherf et al.
# Submitted via: audiograbber 1.83.01
#
DISCID=f0106612
DTITLE=Various Artist - Now 32
DYEAR=2010
DGENRE=Pop
TTITLE0=Timbaland feat.Katy Perry - If we ever meet again
TTITLE1=David guetta feat.Kid Cudi - Memories
TTITLE2=The Black Eye Peas - Rock that body
TTITLE3=Lady Gaga - Bad romance
TTITLE4=Onerepublic - All the right moves
TTITLE5=Guy Sebastian feat.Jordin Sparks - Art of love
TTITLE6=Stan Walker - Black box
TTITLE7=Train - Hey, soul sister
TTITLE8=Chris Brown - Crawl
TTITLE9=Jay Sean feat.Sean Paul and Lil Jon - Do you remember
TTITLE10=Snoop Dog feat.The Dream - Gangsta luv
TTITLE11=Adam Lambert - For your entertainment
TTITLE12=30 Second To Mars - Kings and queens
TTITLE13=Ke$ha - Tik tok
TTITLE14=Gin - I do
TTITLE15=Owl City - Fireflies
TTITLE16=Justin Bieber feat.Ludacris - Baby
TTITLE17=Glee Cast - Don't stop believin'
EXTD=
EXTT0=
EXTT1=
EXTT2=
EXTT3=
EXTT4=
EXTT5=
EXTT6=
EXTT7=
EXTT8=
EXTT9=
EXTT10=
EXTT11=
EXTT12=
EXTT13=
EXTT14=
EXTT15=
EXTT16=
EXTT17=
PLAYORDER=
